<?xml version="1.0" encoding="UTF-8" standalone="no"?>
<svg
   xmlns:dc="http://purl.org/dc/elements/1.1/"
   xmlns:cc="http://creativecommons.org/ns#"
   xmlns:rdf="http://www.w3.org/1999/02/22-rdf-syntax-ns#"
   xmlns:svg="http://www.w3.org/2000/svg"
   xmlns="http://www.w3.org/2000/svg"
   id="svg3231"
   version="1.1"
   viewBox="0 0 210 297"
   height="297mm"
   width="210mm">
  <defs
     id="defs3225" />
  <metadata
     id="metadata3228">
    <rdf:RDF>
      <cc:Work
         rdf:about="">
        <dc:format>image/svg+xml</dc:format>
        <dc:type
           rdf:resource="http://purl.org/dc/dcmitype/StillImage" />
        <dc:title></dc:title>
      </cc:Work>
    </rdf:RDF>
  </metadata>
  <g
     id="layer1">
    <path
       id="path41356"
       d="m 159.90835,5.1206845 c -2.50299,8.7762135 -5.0835,15.9235735 -10.65059,29.3640595 L 107.38372,135.58381 c -3.19629,7.7172 -5.76564,13.22279 -8.324629,18.25927 L 68.232195,79.416062 C 62.498665,65.574677 60.177228,58.43682 57.594876,47.506173 L 31.581797,58.274481 c 5.674335,9.001013 9.550922,16.807903 15.055382,30.095637 L 97.771496,211.82513 c 11.467044,27.68302 6.003194,44.2265 -17.527593,53.9731 -11.903941,4.93086 -23.08938,5.35396 -32.714618,0.90723 -5.595768,-2.54599 -9.408651,-5.50586 -16.561689,-12.59714 l -18.084189,18.18609 c 10.12345,8.78012 15.107936,12.22275 22.546577,15.30388 14.990882,6.43903 33.175141,5.71366 52.553559,-2.31162 20.208417,-8.37075 33.033137,-20.47874 37.352457,-35.8895 3.62336,-13.17649 1.82615,-27.68684 -5.96949,-46.51138 l -16.32758,-39.41551 c 3.74572,1.39376 7.81183,2.97909 13.12359,5.17928 l 47.7408,19.78093 c 11.45006,4.74292 16.93859,7.46244 22.34113,10.84148 l 10.88523,-26.29164 c -7.17718,-1.83172 -12.50169,-3.57764 -23.46788,-8.12016 L 128.51053,146.16199 171.11555,43.307197 c 5.89012,-14.219468 8.87832,-20.520002 13.15358,-28.105823 z"
       style="font-style:normal;font-variant:normal;font-weight:300;font-stretch:normal;font-size:medium;line-height:125%;font-family:'Hiragino Kaku Gothic Pro';-inkscape-font-specification:'Hiragino Kaku Gothic Pro Light';letter-spacing:0px;word-spacing:0px;display:inline;fill:#000000;fill-opacity:1;stroke:#ff0000;stroke-width:0.26542872;stroke-linecap:butt;stroke-linejoin:miter;stroke-miterlimit:4;stroke-dasharray:none;stroke-opacity:1" />
  </g>
</svg>
