STARTFONT 2.1
FONT -FontForge-Source Serif Pro-Bold-R-Normal--38-360-75-75-P-192-ISO10646-1
SIZE 36 75 75
FONTBOUNDINGBOX 33 34 0 -6
COMMENT "Generated by fontforge, http://fontforge.sourceforge.net"
COMMENT "(c) 2014 - 2019 Adobe Systems Incorporated (http://www.adobe.com/), with Reserved Font Name `Source'."
STARTPROPERTIES 38
FOUNDRY "FontForge"
FAMILY_NAME "Source Serif Pro"
WEIGHT_NAME "Bold"
SLANT "R"
SETWIDTH_NAME "Normal"
ADD_STYLE_NAME ""
PIXEL_SIZE 38
POINT_SIZE 360
RESOLUTION_X 75
RESOLUTION_Y 75
SPACING "P"
AVERAGE_WIDTH 192
CHARSET_REGISTRY "ISO10646"
CHARSET_ENCODING "1"
FONTNAME_REGISTRY ""
CHARSET_COLLECTIONS "ISO10646-1"
FONT_NAME "SourceSerifPro-Bold"
FACE_NAME "Source Serif Pro Bold"
COPYRIGHT "(c) 2014 - 2019 Adobe Systems Incorporated (http://www.adobe.com/), with Reserved Font Name `Source'."
FONT_VERSION "3.001;hotconv 1.0.111;makeotfexe 2.5.65597"
FONT_ASCENT 30
FONT_DESCENT 8
UNDERLINE_POSITION -3
UNDERLINE_THICKNESS 2
RAW_ASCENT 800
RAW_DESCENT 200
NORM_SPACE 8
RELATIVE_WEIGHT 70
RELATIVE_SETWIDTH 50
SUPERSCRIPT_X 0
SUPERSCRIPT_Y 13
SUPERSCRIPT_SIZE 22
SUBSCRIPT_X 0
SUBSCRIPT_Y 2
SUBSCRIPT_SIZE 22
FIGURE_WIDTH -1
AVG_LOWERCASE_WIDTH 190
AVG_UPPERCASE_WIDTH 270
ENDPROPERTIES
CHARS 14
STARTCHAR space
ENCODING 32
SWIDTH 214 0
DWIDTH 8 0
BBX 1 1 0 0
BITMAP
00
ENDCHAR
STARTCHAR exclam
ENCODING 33
SWIDTH 347 0
DWIDTH 13 0
BBX 7 26 3 -1
BITMAP
7C
FE
FE
FE
FE
FE
FE
7E
7C
7C
7C
3C
38
38
38
18
00
00
00
7C
FE
FE
FE
FE
7C
10
ENDCHAR
STARTCHAR parenright
ENCODING 41
SWIDTH 377 0
DWIDTH 14 0
BBX 11 34 1 -6
BITMAP
4000
6000
F000
7800
3C00
1E00
1E00
0F00
0F80
0780
0780
07C0
03C0
03C0
03C0
03C0
03E0
03E0
03E0
03C0
03C0
03C0
07C0
07C0
0780
0780
0F00
0F00
1E00
3E00
3C00
7800
F000
6000
ENDCHAR
STARTCHAR hyphen.dup1
ENCODING 45
SWIDTH 339 0
DWIDTH 13 0
BBX 9 3 2 8
BITMAP
FF80
FF80
FF80
ENDCHAR
STARTCHAR colon
ENCODING 58
SWIDTH 300 0
DWIDTH 11 0
BBX 7 20 2 -1
BITMAP
3C
7E
FE
FE
FE
7C
18
00
00
00
00
00
00
3C
7E
FE
FE
7E
7C
10
ENDCHAR
STARTCHAR A
ENCODING 65
SWIDTH 675 0
DWIDTH 26 0
BBX 25 25 0 0
BITMAP
001E0000
001F0000
003F0000
003F0000
003F8000
007F8000
007F8000
004FC000
00CFC000
00CFC000
00CFE000
0187E000
0187E000
0387F000
0303F000
0303F000
07FFF800
07FFF800
0601F800
0E01FC00
0C00FC00
0C00FC00
1C00FE00
FF87FF80
FF87FF80
ENDCHAR
STARTCHAR K
ENCODING 75
SWIDTH 696 0
DWIDTH 26 0
BBX 25 25 1 0
BITMAP
FFF1FF00
FFF1FF00
1F803800
1F807000
1F80E000
1F81C000
1F818000
1F830000
1F870000
1F8F0000
1F9F0000
1F9F8000
1FBFC000
1FEFC000
1FCFE000
1FC7E000
1F87F000
1F83F000
1F83F800
1F83F800
1F81FC00
1F81FC00
1F80FE00
FFF3FF80
FFF3FF80
ENDCHAR
STARTCHAR L
ENCODING 76
SWIDTH 580 0
DWIDTH 22 0
BBX 20 25 1 0
BITMAP
FFF800
FFF800
1FC000
1FC000
1FC000
1FC000
1FC000
1FC000
1FC000
1FC000
1FC000
1FC000
1FC000
1FC000
1FC000
1FC000
1FC000
1FC000
1FC070
1FC070
1FC070
1FC0F0
1FC0F0
FFFFF0
FFFFF0
ENDCHAR
STARTCHAR M
ENCODING 77
SWIDTH 896 0
DWIDTH 34 0
BBX 32 25 1 0
BITMAP
FFC003FF
FFE003FF
1FE007F8
1FE007F8
1FF007F8
1FF00FF8
1FF00DF8
1FF81DF8
1DF81DF8
1DFC19F8
1DFC39F8
1CFC39F8
1CFE31F8
1C7E71F8
1C7E73F8
1C7F63F8
1C3FE3F8
1C3FC3F8
1C3FC3F8
1C1FC3F8
1C1F83F8
1C0F83F8
1C0F83F8
FF8F0FFF
FF870FFF
ENDCHAR
STARTCHAR O
ENCODING 79
SWIDTH 702 0
DWIDTH 27 0
BBX 24 27 1 -1
BITMAP
003C00
01FFC0
07FFE0
0FC1F8
1F80FC
3F00FC
3F007E
7F007E
7E007F
7E007F
7E003F
FE003F
FE003F
FE003F
FE003F
FE003F
7E003F
7E007F
7E007F
7F007E
3F007E
3F00FC
1F80FC
0FC1F8
07FFE0
01FFC0
003E00
ENDCHAR
STARTCHAR a
ENCODING 97
SWIDTH 531 0
DWIDTH 20 0
BBX 19 20 1 -1
BITMAP
03F800
1FFE00
3C7E00
7C3F00
7C3F00
7C3F00
783F00
003F00
01FF00
0FFF00
3F3F00
7E3F00
7C3F00
FC3F00
FC3F00
FC3F00
FFFFA0
7FDFE0
3F8FC0
040200
ENDCHAR
STARTCHAR k
ENCODING 107
SWIDTH 598 0
DWIDTH 23 0
BBX 22 28 1 0
BITMAP
010000
1F0000
FF0000
FF0000
3F0000
3F0000
3F0000
3F0000
3F0000
3F0000
3F1FF8
3F07E0
3F0380
3F0600
3F0C00
3F1C00
3F3E00
3F7E00
3FFF00
3FBF00
3F3F80
3F1F80
3F1FC0
3F0FC0
3F0FE0
3F07E0
FFC7FC
FFC3FC
ENDCHAR
STARTCHAR l
ENCODING 108
SWIDTH 323 0
DWIDTH 12 0
BBX 10 28 1 0
BITMAP
0100
1F00
FF00
FF00
3F00
3F00
3F00
3F00
3F00
3F00
3F00
3F00
3F00
3F00
3F00
3F00
3F00
3F00
3F00
3F00
3F00
3F00
3F00
3F00
3F00
3F00
FFC0
FFC0
ENDCHAR
STARTCHAR o
ENCODING 111
SWIDTH 565 0
DWIDTH 21 0
BBX 19 20 1 -1
BITMAP
01F800
0FFE00
1F1F00
3F0F80
7E0FC0
7E07E0
7E07E0
FE07E0
FE07E0
FE07E0
FE07E0
FE07E0
FE07E0
7E07E0
7E07C0
3E0FC0
3F0F80
1FBF00
07FE00
004000
ENDCHAR
ENDFONT
